<!--?xml version="1.0" encoding="utf-8"?-->
<!-- Generator: Adobe Illustrator 18.1.1, SVG Export Plug-In . SVG Version: 6.00 Build 0)  -->

<svg version="1.1" id="_x32_" xmlns="http://www.w3.org/2000/svg" xmlns:xlink="http://www.w3.org/1999/xlink" x="0px" y="0px" viewBox="0 0 512 512" style="width: 512px; height: 512px; opacity: 1;" xml:space="preserve">
<style type="text/css">
	.st0{fill:#4B4B4B;}
</style>
<g>
	<path class="st0" d="M304.108,265.91c-10.32-13.706-23.005-28.188-37.411-42.594c-19.228-19.212-38.547-35.376-56.024-46.932
		c-8.754-5.783-17.032-10.412-24.772-13.699c-7.74-3.256-14.912-5.268-21.915-5.306c-3.056,0.008-6.112,0.422-9.061,1.458
		c-2.948,1.022-5.774,2.726-8.048,5.022c-2.303,2.288-4.008,5.106-5.037,8.047c-0.752,2.166-1.167,4.386-1.352,6.619L68.445,409.78
		c-3.885,2.91-7.187,5.836-9.967,8.816c-5.498,5.851-8.984,11.971-10.904,17.968c-1.95,5.997-2.364,11.733-2.364,16.924
		c0.015,4.998,0.368,9.552,0.353,13.691c0.015,2.826-0.138,5.444-0.584,7.94c-0.691,3.747-1.935,7.218-4.592,11.08
		c-2.673,3.84-6.88,8.086-13.654,12.709L35.657,512c5.329-3.624,9.645-7.288,13.13-11.05c5.237-5.62,8.554-11.534,10.398-17.339
		c1.843-5.805,2.242-11.372,2.242-16.432c-0.016-4.968-0.369-9.522-0.354-13.691c0-2.895,0.154-5.606,0.63-8.201
		c0.722-3.901,2.043-7.556,4.9-11.648c2.319-3.302,5.759-6.911,10.842-10.773l233.405-73.318c2.457-0.146,4.884-0.56,7.248-1.389
		c2.934-1.03,5.76-2.726,8.048-5.022l-6.405-6.412l6.405,6.404c2.303-2.288,3.993-5.106,5.021-8.047
		c1.045-2.949,1.444-6.005,1.444-9.068c-0.03-6.996-2.042-14.168-5.298-21.916C322.384,292.517,314.428,279.631,304.108,265.91z
		 M90.545,399.751l11.579-37.166l13.914,29.164L90.545,399.751z M126.942,388.318l-19.857-41.642l14.267-45.827l37.027,77.594
		L126.942,388.318z M169.284,375.018l-42.971-90.072l14.282-45.827l60.141,126.024L169.284,375.018z M211.64,361.718l-66.1-138.503
		l3.886-12.447c4.852,9.453,11.441,19.627,19.473,30.316c10.32,13.707,23.022,28.188,37.427,42.594
		c2.626,2.641,5.268,5.206,7.909,7.725l28.842,60.44L211.64,361.718z M253.98,348.411l-17.892-37.496
		c9.03,7.502,17.861,14.145,26.262,19.696c5.82,3.848,11.411,7.126,16.801,9.898L253.98,348.411z" style="fill: rgb(75, 75, 75);"></path>
	
		<rect x="229.283" y="68.939" transform="matrix(0.9508 0.3099 -0.3099 0.9508 45.8587 -67.3674)" class="st0" width="11.323" height="83.403" style="fill: rgb(75, 75, 75);"></rect>
	<polygon class="st0" points="344.959,263.322 348.506,274.08 415.374,252.11 411.841,241.353 	" style="fill: rgb(75, 75, 75);"></polygon>
	<polygon class="st0" points="285.94,144.615 295.277,151.034 344.36,79.783 335.038,73.364 	" style="fill: rgb(75, 75, 75);"></polygon>
	<polygon class="st0" points="308.746,223.945 423.636,145.268 417.248,135.93 302.342,214.608 	" style="fill: rgb(75, 75, 75);"></polygon>
	<polygon class="st0" points="466.545,202.076 448.378,213.802 428.428,205.478 433.956,226.379 419.874,242.789 441.466,243.986 
		452.723,262.454 460.525,242.282 481.565,237.283 464.81,223.622 	" style="fill: rgb(75, 75, 75);"></polygon>
	<polygon class="st0" points="354.911,121.909 344.099,117.409 347.094,128.728 339.461,137.62 351.164,138.272 357.26,148.278 
		361.5,137.351 372.895,134.64 363.802,127.238 364.755,115.558 	" style="fill: rgb(75, 75, 75);"></polygon>
	<polygon class="st0" points="368.318,225.911 373.048,233.674 376.335,225.197 385.181,223.092 378.132,217.348 378.868,208.288 
		371.221,213.217 362.836,209.716 365.154,218.508 359.242,225.411 	" style="fill: rgb(75, 75, 75);"></polygon>
	<polygon class="st0" points="269.031,171.246 273.762,179.001 277.048,170.524 285.894,168.42 278.844,162.676 279.582,153.615 
		271.933,158.544 263.548,155.043 265.883,163.836 259.955,170.738 	" style="fill: rgb(75, 75, 75);"></polygon>
	<polygon class="st0" points="195.376,103.986 200.106,111.742 203.392,103.264 212.238,101.161 205.19,95.417 205.927,86.356 
		198.279,91.286 189.893,87.784 192.212,96.577 186.285,103.48 	" style="fill: rgb(75, 75, 75);"></polygon>
	<polygon class="st0" points="390.326,296.026 384.628,288.938 382.462,297.776 373.97,301.002 381.694,305.786 382.14,314.87 
		389.082,308.995 397.85,311.376 394.41,302.96 399.402,295.358 	" style="fill: rgb(75, 75, 75);"></polygon>
	<polygon class="st0" points="258.112,53.045 267.065,67.727 273.285,51.694 290.01,47.716 276.68,36.858 278.061,19.719 
		263.61,29.042 247.746,22.422 252.153,39.047 240.942,52.093 	" style="fill: rgb(75, 75, 75);"></polygon>
	<polygon class="st0" points="350.503,49.144 358.658,74.108 373.509,52.462 399.771,52.415 383.768,31.599 391.846,6.619 
		367.105,15.404 345.835,0 346.541,26.246 325.317,41.711 	" style="fill: rgb(75, 75, 75);"></polygon>
	<polygon class="st0" points="442.066,144.922 458.928,133.696 477.756,141.229 472.289,121.717 485.266,106.145 465.009,105.307 
		454.228,88.16 447.164,107.158 427.521,112.126 443.416,124.696 	" style="fill: rgb(75, 75, 75);"></polygon>
</g>
</svg>
